<svg width="25" height="22" viewBox="0 0 25 22" fill="none" xmlns="http://www.w3.org/2000/svg">
<path fill-rule="evenodd" clip-rule="evenodd" d="M6.79863 6.6V2C6.79863 0.895428 7.69406 0 8.79863 0H15.9617C17.0663 0 17.9617 0.895431 17.9617 2V8.8H22.0794C23.184 8.8 24.0794 9.69543 24.0794 10.8V20C24.0794 21.1046 23.184 22 22.0794 22H2.24609C1.14153 22 0.246094 21.1046 0.246094 20V8.6C0.246094 7.49543 1.14152 6.6 2.24609 6.6H6.79863ZM16.7008 20.7167V10.6563V1.51252H8.05958V10.6563V20.7167H16.7008ZM22.8185 10.0833H17.9617V20.7167H22.8185V15.1708V10.0833ZM6.79863 20.7167V7.88333H1.50705V20.7167H6.79863Z" fill="#BDBDBD"/>
</svg>
