<svg width="21" height="22" viewBox="0 0 21 22" fill="none" xmlns="http://www.w3.org/2000/svg">
<path d="M1.64906 21.5C1.64905 21.7761 1.87291 22 2.14906 22H18.5748C18.851 22 19.0748 21.7761 19.0748 21.5V12.7936C19.0748 12.5175 19.2987 12.2936 19.5748 12.2936H19.7241C20.0003 12.2936 20.2241 12.0697 20.2241 11.7936V6.41996C20.2241 6.14381 20.0003 5.91996 19.7241 5.91996H17.6093C17.2121 5.91996 16.9618 5.46842 17.0936 5.09373C17.2336 4.69567 17.3102 4.26749 17.3102 3.8214C17.3102 1.71429 15.6144 0 13.5301 0C12.48 0 11.53 0.435951 10.8449 1.13736C10.5909 1.39745 10.133 1.39745 9.87897 1.13736C9.19389 0.43595 8.24399 0 7.19408 0C5.1095 0 3.41397 1.71429 3.41397 3.8214C3.41397 4.26759 3.49054 4.69579 3.63065 5.0939C3.76249 5.46854 3.51222 5.91996 3.11506 5.91996H1C0.723857 5.91996 0.5 6.14381 0.5 6.41996V11.7934C0.5 12.0695 0.723858 12.2934 1 12.2934H1.14928C1.42543 12.2934 1.64929 12.5172 1.64928 12.7934L1.64906 21.5ZM10.9742 3.8214C10.9742 2.39678 12.1208 1.23762 13.5301 1.23762C14.9393 1.23762 16.0857 2.39678 16.0857 3.8214C16.0857 4.62744 15.7175 5.34659 15.1435 5.82059C15.0622 5.88776 14.9584 5.91996 14.8529 5.91996H11.4742C11.1981 5.91996 10.9742 5.6961 10.9742 5.41996V3.8214ZM10.9742 7.6428C10.9742 7.37495 11.1913 7.15782 11.4592 7.15782H18.4996C18.7758 7.15782 18.9996 7.38168 18.9996 7.65782V10.5557C18.9996 10.8319 18.7758 11.0557 18.4996 11.0557H11.4742C11.1981 11.0557 10.9742 10.8319 10.9742 10.5557V7.6428ZM10.9742 12.7936C10.9742 12.5175 11.1981 12.2936 11.4742 12.2936H17.3504C17.6265 12.2936 17.8504 12.5175 17.8504 12.7936V20.2624C17.8504 20.5385 17.6265 20.7624 17.3504 20.7624H11.4742C11.1981 20.7624 10.9742 20.5385 10.9742 20.2624V12.7936ZM9.7497 20.2621C9.7497 20.5383 9.52584 20.7621 9.2497 20.7621H3.37354C3.0974 20.7621 2.87354 20.5383 2.87354 20.2621V12.7936C2.87354 12.5175 3.0974 12.2936 3.37354 12.2936H9.2497C9.52584 12.2936 9.7497 12.5175 9.7497 12.7936V20.2621ZM7.19408 1.23787C8.60331 1.23787 9.7497 2.39702 9.7497 3.82164V5.4202C9.7497 5.69634 9.52584 5.9202 9.2497 5.9202H5.87122C5.76573 5.9202 5.66197 5.888 5.58064 5.82084C5.00663 5.34684 4.63822 4.62769 4.63822 3.82164C4.63822 2.39678 5.78485 1.23787 7.19408 1.23787ZM1.72425 7.65782C1.72425 7.38168 1.94811 7.15782 2.22425 7.15782H9.26473C9.53257 7.15782 9.7497 7.37495 9.7497 7.6428V10.5557C9.7497 10.8319 9.52584 11.0557 9.2497 11.0557H2.22425C1.94811 11.0557 1.72425 10.8319 1.72425 10.5557V7.65782Z" fill="#BDBDBD"/>
</svg>
