<svg width="26" height="21" viewBox="0 0 26 21" fill="none" xmlns="http://www.w3.org/2000/svg">
<path d="M12.9825 0.000143855C12.8461 0.00309696 12.7189 0.0487159 12.5966 0.133444L0.246547 9.97713C-0.0375948 10.2075 -0.077911 10.6327 0.134828 10.9102C0.344508 11.1838 0.790506 11.2276 1.05905 11.0128L13.0028 1.4972L24.9466 11.0128C25.2151 11.2276 25.6488 11.1821 25.8606 10.9102C26.0708 10.6403 26.0482 10.192 25.7591 9.97713L13.4091 0.133444C13.2644 0.0372283 13.1189 -0.00272722 12.9825 0.000143855ZM4.8778 8.8287L3.5778 9.86433V20.3438C3.57782 20.5178 3.6463 20.6847 3.7682 20.8078C3.89009 20.9308 4.05541 21 4.2278 21H10.4028C10.5752 21 10.7405 20.9308 10.8624 20.8078C10.9843 20.6847 11.0528 20.5178 11.0528 20.3438V16.4063C11.0528 15.3042 11.9113 14.4375 13.0028 14.4375C14.0943 14.4375 14.9528 15.3042 14.9528 16.4063V20.3438C14.9528 20.5178 15.0213 20.6847 15.1432 20.8078C15.2651 20.9308 15.4304 21 15.6028 21H21.7778C21.9502 21 22.1155 20.9308 22.2374 20.8078C22.3593 20.6847 22.4278 20.5178 22.4278 20.3438V9.86433L21.1278 8.8287V19.6875H16.2528V16.4063C16.2528 14.5998 14.7921 13.1251 13.0028 13.1251C11.2135 13.1251 9.7528 14.5998 9.7528 16.4063V19.6875H4.8778V8.8287Z" fill="#BDBDBD"/>
</svg>
