<svg width="20" height="22" viewBox="0 0 20 22" fill="none" xmlns="http://www.w3.org/2000/svg">
<path d="M10.0959 0C7.51283 0 5.40625 2.10658 5.40625 4.68966C5.40625 5.06631 5.45158 5.44132 5.54135 5.80712C5.5784 5.95814 5.67392 6.08825 5.8069 6.16884C5.93988 6.24943 6.09943 6.2739 6.25045 6.23685C6.40147 6.1998 6.53158 6.10428 6.61218 5.9713C6.69277 5.83832 6.71723 5.67877 6.68018 5.52775C6.61285 5.2534 6.57867 4.97215 6.57867 4.68966C6.57867 2.7402 8.14645 1.17242 10.0959 1.17242C12.0454 1.17242 13.6132 2.7402 13.6132 4.68966C13.6132 4.97219 13.579 5.25337 13.5116 5.52775C13.4746 5.67877 13.4991 5.83832 13.5796 5.9713C13.6602 6.10428 13.7904 6.1998 13.9414 6.23685C14.0924 6.2739 14.2519 6.24943 14.3849 6.16884C14.5179 6.08825 14.6134 5.95814 14.6505 5.80712C14.7403 5.44128 14.7856 5.06636 14.7856 4.68966C14.7856 2.10658 12.679 0 10.0959 0Z" fill="#BDBDBD"/>
<path d="M10.087 2.3365C9.93167 2.33892 9.78364 2.40291 9.67544 2.5144C9.56725 2.62588 9.50773 2.77576 9.50996 2.9311V3.71271H8.72835C8.65067 3.71161 8.57354 3.72596 8.50146 3.75493C8.42937 3.7839 8.36376 3.8269 8.30844 3.88144C8.25312 3.93599 8.2092 4.00098 8.17921 4.07265C8.14923 4.14432 8.13379 4.22123 8.13379 4.29892C8.13379 4.37661 8.14923 4.45352 8.17921 4.52519C8.2092 4.59685 8.25312 4.66185 8.30844 4.71639C8.36376 4.77094 8.42937 4.81394 8.50146 4.84291C8.57354 4.87187 8.65067 4.88622 8.72835 4.88513H9.50996V5.66674C9.50886 5.74442 9.52321 5.82154 9.55217 5.89362C9.58114 5.96571 9.62415 6.03132 9.67869 6.08664C9.73323 6.14196 9.79823 6.18589 9.8699 6.21587C9.94156 6.24585 10.0185 6.26129 10.0962 6.26129C10.1739 6.26129 10.2508 6.24585 10.3224 6.21587C10.3941 6.18589 10.4591 6.14196 10.5136 6.08664C10.5682 6.03132 10.6112 5.96571 10.6402 5.89362C10.6691 5.82154 10.6835 5.74442 10.6824 5.66674V4.88513H11.464C11.5417 4.88622 11.6188 4.87187 11.6909 4.84291C11.763 4.81394 11.8286 4.77094 11.8839 4.71639C11.9392 4.66185 11.9831 4.59685 12.0131 4.52519C12.0431 4.45352 12.0585 4.37661 12.0585 4.29892C12.0585 4.22123 12.0431 4.14432 12.0131 4.07265C11.9831 4.00098 11.9392 3.93599 11.8839 3.88144C11.8286 3.8269 11.763 3.7839 11.6909 3.75493C11.6188 3.72596 11.5417 3.71161 11.464 3.71271H10.6824V2.9311C10.6835 2.85264 10.6689 2.77475 10.6393 2.70205C10.6098 2.62935 10.566 2.56332 10.5105 2.50787C10.4549 2.45242 10.3888 2.40868 10.3161 2.37925C10.2434 2.34981 10.1655 2.33527 10.087 2.3365Z" fill="#BDBDBD"/>
<path d="M15.595 2.34479C15.5174 2.34369 15.4402 2.35804 15.3682 2.387C15.2961 2.41597 15.2305 2.45898 15.1751 2.51352C15.1198 2.56806 15.0759 2.63306 15.0459 2.70472C15.0159 2.77639 15.0005 2.85331 15.0005 2.93099C15.0005 3.00868 15.0159 3.08559 15.0459 3.15726C15.0759 3.22893 15.1198 3.29392 15.1751 3.34847C15.2305 3.40301 15.2961 3.44601 15.3682 3.47498C15.4402 3.50395 15.5174 3.5183 15.595 3.5172H16.3492V5.66663C16.3481 5.74431 16.3624 5.82143 16.3914 5.89351C16.4204 5.9656 16.4634 6.03121 16.5179 6.08653C16.5725 6.14185 16.6374 6.18578 16.7091 6.21576C16.7808 6.24574 16.8577 6.26118 16.9354 6.26118C17.0131 6.26118 17.09 6.24574 17.1617 6.21576C17.2333 6.18578 17.2983 6.14185 17.3529 6.08653C17.4074 6.03121 17.4504 5.9656 17.4794 5.89351C17.5083 5.82143 17.5227 5.74431 17.5216 5.66663V2.93099C17.5216 2.77553 17.4598 2.62643 17.3499 2.5165C17.2399 2.40657 17.0909 2.3448 16.9354 2.34479H15.595Z" fill="#BDBDBD"/>
<path d="M7.23763 15.8626C7.11114 15.857 6.98625 15.8925 6.88162 15.9638C6.77699 16.0351 6.69825 16.1384 6.65719 16.2581C6.61612 16.3779 6.61493 16.5077 6.65379 16.6282C6.69265 16.7487 6.76948 16.8534 6.87278 16.9266C7.77648 17.5866 8.89378 17.9769 10.0962 17.9769C11.2985 17.9769 12.4158 17.5866 13.3195 16.9266C13.3848 16.8825 13.4406 16.8257 13.4834 16.7596C13.5263 16.6935 13.5553 16.6194 13.5689 16.5418C13.5825 16.4642 13.5803 16.3846 13.5624 16.3079C13.5446 16.2311 13.5114 16.1588 13.465 16.0951C13.4185 16.0315 13.3597 15.9779 13.2921 15.9375C13.2245 15.8971 13.1494 15.8707 13.0713 15.86C12.9932 15.8492 12.9138 15.8543 12.8378 15.875C12.7618 15.8956 12.6907 15.9314 12.6288 15.9801C11.9181 16.4991 11.0458 16.8045 10.0962 16.8045C9.14649 16.8045 8.27495 16.4991 7.56432 15.9801C7.46979 15.9089 7.3559 15.8679 7.23763 15.8626Z" fill="#BDBDBD"/>
<path d="M6.96938 11.7241C6.16279 11.7241 5.61988 12.2485 5.61988 12.2485C5.56043 12.2975 5.5112 12.3577 5.47502 12.4256C5.43883 12.4936 5.41639 12.5681 5.40897 12.6447C5.40156 12.7214 5.40932 12.7988 5.43181 12.8724C5.4543 12.9461 5.49108 13.0146 5.54005 13.0741C5.58902 13.1335 5.64922 13.1827 5.71722 13.2189C5.78521 13.2551 5.85966 13.2775 5.93633 13.2849C6.01299 13.2923 6.09036 13.2845 6.16402 13.262C6.23768 13.2395 6.30618 13.2027 6.36562 13.1538C6.36562 13.1538 6.76998 12.8965 6.96938 12.8965C7.16879 12.8965 7.57391 13.1538 7.57391 13.1538C7.63335 13.2027 7.70185 13.2395 7.77551 13.262C7.84917 13.2845 7.92654 13.2923 8.0032 13.2849C8.07986 13.2775 8.15432 13.2551 8.22231 13.2189C8.2903 13.1827 8.35051 13.1335 8.39948 13.0741C8.44845 13.0146 8.48523 12.9461 8.50772 12.8724C8.53021 12.7988 8.53797 12.7214 8.53056 12.6447C8.52314 12.5681 8.5007 12.4936 8.46451 12.4256C8.42832 12.3577 8.3791 12.2975 8.31964 12.2485C8.31964 12.2485 7.77597 11.7241 6.96938 11.7241Z" fill="#BDBDBD"/>
<path d="M13.2228 11.7241C12.4162 11.7241 11.8733 12.2485 11.8733 12.2485C11.8138 12.2975 11.7646 12.3577 11.7284 12.4256C11.6922 12.4936 11.6698 12.5681 11.6624 12.6447C11.655 12.7214 11.6627 12.7988 11.6852 12.8724C11.7077 12.9461 11.7445 13.0146 11.7935 13.0741C11.8424 13.1335 11.9026 13.1827 11.9706 13.2189C12.0386 13.2551 12.1131 13.2775 12.1897 13.2849C12.2664 13.2923 12.3438 13.2845 12.4174 13.262C12.4911 13.2395 12.5596 13.2027 12.619 13.1538C12.619 13.1538 13.0234 12.8965 13.2228 12.8965C13.4222 12.8965 13.8273 13.1538 13.8273 13.1538C13.8868 13.2027 13.9553 13.2395 14.0289 13.262C14.1026 13.2845 14.18 13.2923 14.2566 13.2849C14.3333 13.2775 14.4077 13.2551 14.4757 13.2189C14.5437 13.1827 14.6039 13.1335 14.6529 13.0741C14.7019 13.0146 14.7386 12.9461 14.7611 12.8724C14.7836 12.7988 14.7914 12.7214 14.784 12.6447C14.7766 12.5681 14.7541 12.4936 14.7179 12.4256C14.6817 12.3577 14.6325 12.2975 14.5731 12.2485C14.5731 12.2485 14.0294 11.7241 13.2228 11.7241Z" fill="#BDBDBD"/>
<path d="M3.25727 2.34479C1.64361 2.34479 0.326231 3.66217 0.326231 5.27582C0.326231 6.88948 1.64361 8.20686 3.25727 8.20686H18.6941V20.7126H3.25727C2.27285 20.7126 1.49865 19.9384 1.49865 18.954V8.79307C1.49974 8.71539 1.48539 8.63827 1.45643 8.56618C1.42746 8.4941 1.38445 8.42849 1.32991 8.37317C1.27537 8.31785 1.21037 8.27392 1.13871 8.24393C1.06704 8.21395 0.990125 8.19851 0.912438 8.19851C0.834751 8.19851 0.757838 8.21395 0.68617 8.24393C0.614502 8.27392 0.549508 8.31785 0.494964 8.37317C0.440421 8.42849 0.397416 8.4941 0.36845 8.56618C0.339483 8.63827 0.325132 8.71539 0.326231 8.79307V18.954C0.326231 20.5677 1.64361 21.885 3.25727 21.885H19.2803C19.4357 21.885 19.5848 21.8233 19.6948 21.7133C19.8047 21.6034 19.8665 21.4543 19.8665 21.2988V7.62065C19.8665 7.46519 19.8047 7.31609 19.6948 7.20616C19.5848 7.09623 19.4357 7.03446 19.2803 7.03445H3.25727C2.27285 7.03445 1.49865 6.26024 1.49865 5.27582C1.49865 4.29141 2.27285 3.5172 3.25727 3.5172H4.53273C4.61041 3.5183 4.68753 3.50395 4.75961 3.47498C4.8317 3.44601 4.89731 3.40301 4.95263 3.34847C5.00795 3.29392 5.05188 3.22893 5.08186 3.15726C5.11184 3.08559 5.12728 3.00868 5.12728 2.93099C5.12728 2.85331 5.11184 2.77639 5.08186 2.70472C5.05188 2.63306 5.00795 2.56806 4.95263 2.51352C4.89731 2.45898 4.8317 2.41597 4.75961 2.387C4.68753 2.35804 4.61041 2.34369 4.53273 2.34479H3.25727Z" fill="#BDBDBD"/>
</svg>
