<svg width="186" height="32" viewBox="0 0 186 32" fill="none" xmlns="http://www.w3.org/2000/svg">
<g id="Group 7749867">
<path id="Vector 27" d="M185.286 4.23913L0.244629 6.72803L0.996403 28.6843L183.669 25.1774L185.286 4.23913Z" fill="#EB2121"/>
<g id="TEBAK JAWAB LANGSUNG">
<path d="M18.9683 11.5573L18.8981 14.6145L16.8077 14.701L16.2745 21.5363L13.3142 21.695L13.3283 14.8596L11.2378 14.975L11.322 11.5717L18.9683 11.5573Z" fill="white"/>
<path d="M25.9973 11.4708C25.9692 11.9226 25.9435 12.3697 25.9201 12.8119C25.8967 13.2541 25.8663 13.7012 25.8289 14.153L22.8546 14.3116L22.7844 15.2201H24.8749L24.7206 17.4553L22.6161 17.5274L22.5459 18.5801H25.5203C25.4922 19.1089 25.4618 19.6352 25.4291 20.1592C25.401 20.6783 25.3753 21.1998 25.3519 21.7238L19.305 21.868L19.5295 11.4708H25.9973Z" fill="white"/>
<path d="M34.4082 19.3011C34.4082 19.7001 34.3357 20.0438 34.1908 20.3322C34.0505 20.6206 33.8611 20.8658 33.6225 21.0677C33.384 21.2695 33.1081 21.4354 32.7948 21.5652C32.4861 21.6901 32.1634 21.7887 31.8267 21.8608C31.49 21.9329 31.1509 21.981 30.8095 22.005C30.4728 22.029 30.1572 22.041 29.8625 22.041C29.5726 22.041 29.2709 22.029 28.9576 22.005C28.6489 21.9858 28.3403 21.9497 28.0316 21.8968C27.723 21.844 27.419 21.7743 27.1197 21.6877C26.8204 21.5964 26.5374 21.4834 26.2709 21.3489L26.2568 12.062C26.5187 11.9515 26.797 11.8529 27.0916 11.7664C27.3862 11.6751 27.6855 11.6006 27.9895 11.5429C28.2982 11.4804 28.6045 11.4347 28.9085 11.4059C29.2125 11.3722 29.5071 11.3554 29.7924 11.3554C30.1244 11.3554 30.4588 11.3771 30.7955 11.4203C31.1369 11.4636 31.4643 11.5357 31.7776 11.6366C32.0909 11.7376 32.3832 11.8698 32.6545 12.0332C32.9257 12.1918 33.1619 12.3889 33.363 12.6244C33.5688 12.86 33.7278 13.134 33.84 13.4464C33.9569 13.7588 34.0154 14.1194 34.0154 14.5279C34.0154 14.7971 33.978 15.0495 33.9031 15.285C33.8283 15.5206 33.7208 15.7321 33.5805 15.9195C33.4402 16.107 33.2695 16.268 33.0684 16.4026C32.8673 16.5324 32.6404 16.6285 32.3879 16.691C32.6919 16.7727 32.9678 16.8929 33.2157 17.0515C33.4682 17.2102 33.681 17.4024 33.854 17.6284C34.0317 17.8543 34.1674 18.109 34.2609 18.3926C34.3591 18.6762 34.4082 18.9791 34.4082 19.3011ZM30.8446 15.1913C30.8446 15.0519 30.8166 14.9341 30.7604 14.838C30.7043 14.737 30.6342 14.6553 30.55 14.5928C30.4705 14.5303 30.3816 14.4847 30.2834 14.4558C30.1899 14.427 30.1057 14.4126 30.0309 14.4126C29.9373 14.4126 29.8462 14.427 29.7573 14.4558C29.6684 14.4847 29.5819 14.5183 29.4977 14.5568L29.4557 16.1575C29.5632 16.1575 29.6965 16.1478 29.8555 16.1286C30.0145 16.1094 30.1665 16.0685 30.3115 16.006C30.4611 15.9387 30.5874 15.8426 30.6903 15.7176C30.7932 15.5878 30.8446 15.4124 30.8446 15.1913ZM29.8485 17.5418C29.7129 17.5418 29.5819 17.5563 29.4557 17.5851L29.4276 19.229C29.4977 19.2435 29.5656 19.2579 29.631 19.2723C29.7012 19.2819 29.769 19.2867 29.8345 19.2867C29.9327 19.2867 30.0402 19.2771 30.1572 19.2579C30.2741 19.2338 30.384 19.1906 30.4869 19.1281C30.5897 19.0608 30.6739 18.9719 30.7394 18.8613C30.8095 18.7508 30.8446 18.6041 30.8446 18.4215C30.8446 18.2388 30.8095 18.0898 30.7394 17.9744C30.6739 17.8591 30.5921 17.7702 30.4939 17.7077C30.3957 17.6404 30.2881 17.5971 30.1712 17.5779C30.0543 17.5539 29.9467 17.5418 29.8485 17.5418Z" fill="white"/>
<path d="M43.6329 21.2479L40.1535 21.7094L39.7326 20.0798H38.1332L37.7824 21.7094L34.2048 21.3489L36.9967 11.7448L40.8971 11.5429L43.6329 21.2479ZM39.48 17.8735L38.9469 15.3643L38.4278 17.8735H39.48Z" fill="white"/>
<path d="M52.6752 11.5429L49.294 16.3449L52.142 21.4498L48.8871 22.041L46.7546 18.9262L46.6423 22.1852L43.7241 22.3006L43.9486 11.2545L47.2175 11.4419L46.965 14.701L49.1396 11.2545L52.6752 11.5429Z" fill="white"/>
<path d="M62.1103 15.9267C62.1103 16.2103 62.1103 16.4915 62.1103 16.7703C62.1103 17.0491 62.0963 17.3303 62.0682 17.6139C62.0168 18.2148 61.8905 18.7844 61.6894 19.3228C61.4883 19.8563 61.2147 20.325 60.8687 20.7288C60.5273 21.1325 60.111 21.4522 59.62 21.6877C59.129 21.9233 58.5654 22.041 57.9294 22.041C57.6815 22.041 57.422 22.0194 57.1507 21.9762C56.8842 21.9329 56.6176 21.868 56.351 21.7815C56.0891 21.695 55.8366 21.5892 55.5934 21.4642C55.3549 21.3344 55.1421 21.1854 54.955 21.0172L55.39 18.0321C55.6659 18.3061 55.9722 18.5296 56.3089 18.7027C56.6457 18.8709 57.0128 18.955 57.4103 18.955C57.6675 18.955 57.885 18.9166 58.0627 18.8397C58.2404 18.7628 58.3877 18.657 58.5046 18.5224C58.6215 18.3878 58.7127 18.2316 58.7782 18.0538C58.8484 17.8711 58.8975 17.6788 58.9255 17.4769C58.9583 17.2702 58.977 17.0587 58.9816 16.8424C58.991 16.6261 58.9957 16.4122 58.9957 16.2007C58.9957 15.4364 58.9583 14.677 58.8834 13.9223C58.8086 13.1628 58.7431 12.4033 58.687 11.6438L61.8999 11.4275C62.0402 12.9273 62.1103 14.427 62.1103 15.9267Z" fill="white"/>
<path d="M71.2859 21.2479L67.8065 21.7094L67.3856 20.0798H65.7862L65.4354 21.7094L61.8578 21.3489L64.6497 11.7448L68.55 11.5429L71.2859 21.2479ZM67.133 17.8735L66.5999 15.3643L66.0808 17.8735H67.133Z" fill="white"/>
<path d="M83.5551 11.8601L81.9136 21.8536L77.9291 21.9401L77.0732 16.7631L76.2174 21.5652L72.2329 21.7094L70.5774 11.8601L74.0568 11.5429L74.7583 17.5274L75.6983 11.5429H78.4341L79.5285 17.5995L80.0897 11.5429L83.5551 11.8601Z" fill="white"/>
<path d="M92.2887 21.2479L88.8093 21.7094L88.3884 20.0798H86.789L86.4382 21.7094L82.8606 21.3489L85.6525 11.7448L89.5528 11.5429L92.2887 21.2479ZM88.1358 17.8735L87.6027 15.3643L87.0836 17.8735H88.1358Z" fill="white"/>
<path d="M100.601 19.3011C100.601 19.7001 100.529 20.0438 100.384 20.3322C100.244 20.6206 100.054 20.8658 99.8157 21.0677C99.5772 21.2695 99.3013 21.4354 98.988 21.5652C98.6793 21.6901 98.3566 21.7887 98.0199 21.8608C97.6832 21.9329 97.3441 21.981 97.0027 22.005C96.666 22.029 96.3503 22.041 96.0557 22.041C95.7658 22.041 95.4641 22.029 95.1508 22.005C94.8421 21.9858 94.5335 21.9497 94.2248 21.8968C93.9162 21.844 93.6122 21.7743 93.3129 21.6877C93.0136 21.5964 92.7306 21.4834 92.4641 21.3489L92.45 12.062C92.7119 11.9515 92.9902 11.8529 93.2848 11.7664C93.5794 11.6751 93.8787 11.6006 94.1827 11.5429C94.4914 11.4804 94.7977 11.4347 95.1017 11.4059C95.4057 11.3722 95.7003 11.3554 95.9856 11.3554C96.3176 11.3554 96.652 11.3771 96.9887 11.4203C97.3301 11.4636 97.6575 11.5357 97.9708 11.6366C98.2841 11.7376 98.5764 11.8698 98.8477 12.0332C99.1189 12.1918 99.3551 12.3889 99.5562 12.6244C99.762 12.86 99.921 13.134 100.033 13.4464C100.15 13.7588 100.209 14.1194 100.209 14.5279C100.209 14.7971 100.171 15.0495 100.096 15.285C100.022 15.5206 99.9139 15.7321 99.7737 15.9195C99.6334 16.107 99.4627 16.268 99.2616 16.4026C99.0605 16.5324 98.8336 16.6285 98.5811 16.691C98.8851 16.7727 99.161 16.8929 99.4089 17.0515C99.6614 17.2102 99.8742 17.4024 100.047 17.6284C100.225 17.8543 100.361 18.109 100.454 18.3926C100.552 18.6762 100.601 18.9791 100.601 19.3011ZM97.0378 15.1913C97.0378 15.0519 97.0098 14.9341 96.9536 14.838C96.8975 14.737 96.8274 14.6553 96.7432 14.5928C96.6637 14.5303 96.5748 14.4847 96.4766 14.4558C96.3831 14.427 96.2989 14.4126 96.2241 14.4126C96.1305 14.4126 96.0394 14.427 95.9505 14.4558C95.8616 14.4847 95.7751 14.5183 95.6909 14.5568L95.6488 16.1575C95.7564 16.1575 95.8897 16.1478 96.0487 16.1286C96.2077 16.1094 96.3597 16.0685 96.5047 16.006C96.6543 15.9387 96.7806 15.8426 96.8835 15.7176C96.9864 15.5878 97.0378 15.4124 97.0378 15.1913ZM96.0417 17.5418C95.9061 17.5418 95.7751 17.5563 95.6488 17.5851L95.6208 19.229C95.6909 19.2435 95.7588 19.2579 95.8242 19.2723C95.8944 19.2819 95.9622 19.2867 96.0277 19.2867C96.1259 19.2867 96.2334 19.2771 96.3503 19.2579C96.4673 19.2338 96.5772 19.1906 96.6801 19.1281C96.7829 19.0608 96.8671 18.9719 96.9326 18.8613C97.0027 18.7508 97.0378 18.6041 97.0378 18.4215C97.0378 18.2388 97.0027 18.0898 96.9326 17.9744C96.8671 17.8591 96.7853 17.7702 96.6871 17.7077C96.5889 17.6404 96.4813 17.5971 96.3644 17.5779C96.2475 17.5539 96.1399 17.5418 96.0417 17.5418Z" fill="white"/>
<path d="M109.952 17.7581L109.658 20.9595L103.751 21.4354C103.779 19.7578 103.81 18.0898 103.842 16.4315C103.88 14.7731 103.924 13.1051 103.976 11.4275H107.623C107.516 12.4802 107.413 13.5329 107.315 14.5856C107.217 15.6335 107.146 16.691 107.104 17.7581C107.324 17.7678 107.542 17.7726 107.757 17.7726C107.972 17.7726 108.189 17.7726 108.409 17.7726C108.671 17.7726 108.928 17.7702 109.181 17.7654C109.433 17.7605 109.69 17.7581 109.952 17.7581Z" fill="white"/>
<path d="M119.128 21.2479L115.649 21.7094L115.228 20.0798H113.628L113.277 21.7094L109.7 21.3489L112.492 11.7448L116.392 11.5429L119.128 21.2479ZM114.975 17.8735L114.442 15.3643L113.923 17.8735H114.975Z" fill="white"/>
<path d="M128.816 11.5285L128.311 21.3056L124.635 21.6517L122.67 16.417L122.362 21.7526H119.205L119.458 11.5285L122.965 11.3554L125.392 16.5468L125.505 11.6438L128.816 11.5285Z" fill="white"/>
<path d="M137.858 20.3971C137.638 20.6807 137.367 20.9283 137.044 21.1398C136.721 21.3513 136.375 21.5267 136.006 21.6661C135.636 21.8055 135.258 21.9089 134.87 21.9762C134.481 22.0483 134.112 22.0843 133.761 22.0843C133.083 22.0843 132.459 21.9593 131.888 21.7094C131.318 21.4594 130.824 21.1157 130.408 20.6783C129.996 20.2361 129.674 19.7169 129.44 19.1209C129.206 18.5248 129.089 17.8831 129.089 17.1957C129.089 16.6718 129.148 16.1599 129.265 15.66C129.381 15.1552 129.547 14.6818 129.763 14.2395C129.982 13.7925 130.249 13.3839 130.562 13.0138C130.876 12.6388 131.231 12.3168 131.629 12.0476C132.026 11.7784 132.461 11.5693 132.933 11.4203C133.406 11.2713 133.911 11.1968 134.449 11.1968C134.65 11.1968 134.865 11.2064 135.094 11.2256C135.323 11.2401 135.55 11.2689 135.774 11.3122C136.004 11.3506 136.226 11.4059 136.441 11.478C136.656 11.5501 136.852 11.639 137.03 11.7448L136.834 14.4991C136.572 14.3982 136.301 14.3309 136.02 14.2972C135.744 14.2588 135.473 14.2395 135.206 14.2395C134.832 14.2395 134.481 14.2996 134.154 14.4198C133.831 14.5351 133.548 14.7034 133.305 14.9245C133.067 15.1456 132.877 15.4148 132.737 15.7321C132.597 16.0493 132.527 16.4074 132.527 16.8064C132.527 17.0563 132.559 17.2991 132.625 17.5346C132.69 17.7654 132.788 17.972 132.919 18.1547C133.055 18.3326 133.221 18.4768 133.417 18.5873C133.619 18.6979 133.85 18.7532 134.112 18.7532C134.29 18.7532 134.472 18.7291 134.659 18.6811C134.851 18.633 135.014 18.5513 135.15 18.4359L135.178 17.8735L133.495 17.8447L133.579 15.6816C134.276 15.6575 134.972 15.6383 135.669 15.6239C136.366 15.6047 137.068 15.5806 137.774 15.5518L137.858 20.3971Z" fill="white"/>
<path d="M145.581 18.0321C145.581 18.6907 145.469 19.2675 145.245 19.7626C145.025 20.2529 144.721 20.6615 144.333 20.9883C143.949 21.3152 143.498 21.5604 142.979 21.7238C142.464 21.8872 141.91 21.9689 141.316 21.9689C141.087 21.9689 140.835 21.9377 140.559 21.8752C140.287 21.8127 140.011 21.7358 139.731 21.6445C139.45 21.5483 139.179 21.4474 138.917 21.3416C138.66 21.2311 138.431 21.1277 138.23 21.0316L138.538 18.061C138.936 18.3061 139.375 18.4936 139.857 18.6234C140.344 18.7484 140.821 18.8108 141.288 18.8108C141.377 18.8108 141.485 18.8084 141.611 18.8036C141.737 18.794 141.856 18.7724 141.969 18.7387C142.086 18.7003 142.184 18.645 142.263 18.5729C142.343 18.5008 142.383 18.3975 142.383 18.2629C142.383 18.1715 142.354 18.0946 142.298 18.0321C142.242 17.9648 142.17 17.912 142.081 17.8735C141.992 17.8302 141.891 17.799 141.779 17.7798C141.667 17.7557 141.557 17.7389 141.45 17.7293C141.342 17.7197 141.241 17.7149 141.148 17.7149C141.054 17.7149 140.98 17.7149 140.923 17.7149C140.521 17.7149 140.154 17.6428 139.822 17.4986C139.495 17.3544 139.212 17.1549 138.973 16.9001C138.739 16.6405 138.557 16.3353 138.426 15.9844C138.295 15.6287 138.23 15.2442 138.23 14.8308C138.23 14.2636 138.34 13.7564 138.559 13.3094C138.784 12.8576 139.081 12.4754 139.45 12.163C139.824 11.8457 140.252 11.603 140.734 11.4347C141.216 11.2665 141.714 11.1824 142.228 11.1824C142.457 11.1824 142.694 11.192 142.937 11.2112C143.18 11.2256 143.421 11.2545 143.659 11.2977C143.902 11.341 144.139 11.3963 144.368 11.4636C144.597 11.5309 144.814 11.615 145.02 11.7159L144.754 14.6433C144.436 14.5327 144.101 14.4414 143.75 14.3693C143.404 14.2924 143.065 14.2539 142.733 14.2539C142.672 14.2539 142.593 14.2564 142.495 14.2612C142.401 14.2612 142.301 14.2684 142.193 14.2828C142.09 14.2924 141.985 14.3092 141.877 14.3333C141.77 14.3573 141.674 14.3909 141.59 14.4342C141.506 14.4727 141.438 14.5255 141.386 14.5928C141.335 14.6601 141.312 14.7394 141.316 14.8308C141.321 14.9365 141.358 15.023 141.429 15.0903C141.503 15.1528 141.597 15.2033 141.709 15.2418C141.826 15.2754 141.952 15.2994 142.088 15.3139C142.228 15.3283 142.366 15.3379 142.502 15.3427C142.637 15.3427 142.764 15.3427 142.881 15.3427C142.998 15.3379 143.093 15.3403 143.168 15.3499C143.542 15.3739 143.879 15.4557 144.178 15.5951C144.478 15.7345 144.73 15.9195 144.936 16.1503C145.146 16.381 145.305 16.6574 145.413 16.9794C145.525 17.2967 145.581 17.6476 145.581 18.0321Z" fill="white"/>
<path d="M154.42 13.8502C154.42 14.2059 154.404 14.5976 154.371 15.0254C154.338 15.4533 154.285 15.8955 154.21 16.3521C154.135 16.8088 154.037 17.2726 153.915 17.7437C153.798 18.21 153.651 18.6594 153.473 19.092C153.295 19.5247 153.087 19.9308 152.849 20.3106C152.615 20.6855 152.344 21.0148 152.035 21.2984C151.731 21.5772 151.39 21.7959 151.011 21.9545C150.632 22.118 150.211 22.1997 149.748 22.1997C149.206 22.1997 148.733 22.1083 148.331 21.9257C147.934 21.7478 147.592 21.5075 147.307 21.2047C147.022 20.897 146.788 20.5413 146.606 20.1375C146.423 19.7289 146.281 19.2987 146.178 18.8469C146.075 18.3902 146.002 17.9264 145.96 17.4553C145.923 16.9794 145.904 16.5228 145.904 16.0854C145.904 15.4124 145.937 14.7418 146.002 14.0737C146.068 13.4007 146.161 12.7302 146.283 12.062L149.566 12.1918C149.44 12.9465 149.33 13.706 149.236 14.4703C149.147 15.2297 149.103 15.994 149.103 16.7631C149.103 16.8448 149.105 16.9674 149.11 17.1308C149.119 17.2895 149.133 17.4697 149.152 17.6716C149.171 17.8687 149.196 18.073 149.229 18.2845C149.267 18.4912 149.316 18.6811 149.376 18.8541C149.437 19.0271 149.51 19.169 149.594 19.2795C149.683 19.3901 149.786 19.4453 149.903 19.4453C150.038 19.4453 150.16 19.3805 150.267 19.2507C150.375 19.1161 150.468 18.9382 150.548 18.7171C150.632 18.496 150.705 18.2412 150.765 17.9528C150.826 17.6644 150.878 17.364 150.92 17.0515C150.962 16.7391 150.995 16.4266 151.018 16.1142C151.046 15.8018 151.067 15.5109 151.081 15.2418C151.1 14.9726 151.111 14.7346 151.116 14.5279C151.121 14.3212 151.123 14.1674 151.123 14.0665C151.123 13.6915 151.116 13.319 151.102 12.9489C151.093 12.574 151.076 12.2014 151.053 11.8313H154.336C154.392 12.4946 154.42 13.1676 154.42 13.8502Z" fill="white"/>
<path d="M164.522 11.5285L164.017 21.3056L160.341 21.6517L158.377 16.417L158.068 21.7526H154.911L155.164 11.5285L158.671 11.3554L161.098 16.5468L161.211 11.6438L164.522 11.5285Z" fill="white"/>
<path d="M173.564 20.3971C173.344 20.6807 173.073 20.9283 172.75 21.1398C172.428 21.3513 172.082 21.5267 171.712 21.6661C171.343 21.8055 170.964 21.9089 170.576 21.9762C170.188 22.0483 169.818 22.0843 169.467 22.0843C168.789 22.0843 168.165 21.9593 167.594 21.7094C167.024 21.4594 166.53 21.1157 166.114 20.6783C165.703 20.2361 165.38 19.7169 165.146 19.1209C164.912 18.5248 164.795 17.8831 164.795 17.1957C164.795 16.6718 164.854 16.1599 164.971 15.66C165.088 15.1552 165.254 14.6818 165.469 14.2395C165.689 13.7925 165.955 13.3839 166.268 13.0138C166.582 12.6388 166.937 12.3168 167.335 12.0476C167.732 11.7784 168.167 11.5693 168.64 11.4203C169.112 11.2713 169.617 11.1968 170.155 11.1968C170.356 11.1968 170.571 11.2064 170.8 11.2256C171.029 11.2401 171.256 11.2689 171.481 11.3122C171.71 11.3506 171.932 11.4059 172.147 11.478C172.362 11.5501 172.559 11.639 172.736 11.7448L172.54 14.4991C172.278 14.3982 172.007 14.3309 171.726 14.2972C171.45 14.2588 171.179 14.2395 170.912 14.2395C170.538 14.2395 170.188 14.2996 169.86 14.4198C169.537 14.5351 169.255 14.7034 169.011 14.9245C168.773 15.1456 168.583 15.4148 168.443 15.7321C168.303 16.0493 168.233 16.4074 168.233 16.8064C168.233 17.0563 168.265 17.2991 168.331 17.5346C168.396 17.7654 168.495 17.972 168.626 18.1547C168.761 18.3326 168.927 18.4768 169.124 18.5873C169.325 18.6979 169.556 18.7532 169.818 18.7532C169.996 18.7532 170.178 18.7291 170.365 18.6811C170.557 18.633 170.721 18.5513 170.856 18.4359L170.884 17.8735L169.201 17.8447L169.285 15.6816C169.982 15.6575 170.679 15.6383 171.375 15.6239C172.072 15.6047 172.774 15.5806 173.48 15.5518L173.564 20.3971Z" fill="white"/>
</g>
</g>
</svg>
